<?xml version="1.0" standalone="no"?>
<!DOCTYPE svg PUBLIC "-//W3C//DTD SVG 20010904//EN"
 "http://www.w3.org/TR/2001/REC-SVG-20010904/DTD/svg10.dtd">
<svg version="1.0" xmlns="http://www.w3.org/2000/svg"
 width="2100.000000pt" height="1500.000000pt" viewBox="0 0 2100.000000 1500.000000"
 preserveAspectRatio="xMidYMid meet">

<g transform="translate(0.000000,1500.000000) scale(0.100000,-0.100000)"
fill="#000000" stroke="none">
<path d="M9935 13825 c-129 -25 -252 -83 -347 -164 -169 -145 -240 -301 -209
-464 14 -77 76 -216 109 -244 l26 -22 -56 -73 c-80 -106 -147 -176 -280 -295
-119 -106 -208 -207 -208 -239 0 -21 -47 -18 -440 28 -396 46 -766 43 -1145
-8 -190 -26 -458 -73 -556 -98 -356 -90 -655 -274 -904 -556 l-95 -107 -150
-68 c-254 -114 -398 -207 -483 -310 -27 -33 -66 -75 -88 -93 -41 -35 -49 -65
-29 -103 9 -15 6 -24 -15 -47 -35 -38 -65 -123 -65 -185 0 -104 62 -186 199
-264 25 -15 47 -28 49 -29 2 -1 -18 -22 -43 -45 -98 -91 -168 -213 -220 -384
-15 -49 -52 -144 -82 -209 -66 -146 -96 -247 -129 -436 -14 -80 -38 -206 -54
-280 -48 -222 -59 -291 -71 -457 -12 -157 -6 -481 10 -591 7 -48 6 -53 -13
-56 -258 -48 -440 -130 -632 -284 -176 -141 -308 -333 -349 -508 -16 -66 -20
-74 -66 -108 -27 -20 -63 -55 -79 -78 l-30 -41 0 -241 0 -242 34 -69 c41 -86
110 -154 191 -192 51 -24 73 -28 145 -28 101 0 158 24 222 93 66 71 128 245
128 357 0 128 -98 338 -217 466 l-43 46 41 64 c55 85 168 200 250 255 37 24
110 64 163 89 98 47 315 130 321 123 2 -1 13 -57 24 -123 19 -103 56 -254 77
-309 5 -14 -5 -16 -92 -16 -67 1 -107 5 -124 15 -93 53 -149 -44 -98 -170 24
-57 199 -337 240 -381 11 -12 21 -34 23 -50 1 -15 12 -34 23 -43 11 -9 25 -32
31 -51 14 -44 99 -147 178 -216 32 -28 132 -123 223 -210 181 -174 243 -220
460 -344 173 -99 352 -219 435 -292 194 -170 360 -261 709 -389 202 -74 376
-152 568 -256 381 -204 507 -253 1048 -402 354 -97 554 -146 696 -170 118 -20
155 -21 1353 -21 l1231 0 108 30 c60 17 165 41 235 55 142 29 719 215 819 266
35 17 104 55 153 84 86 51 342 178 453 226 29 12 57 29 63 36 9 10 20 8 54
-12 100 -59 293 -105 439 -105 136 0 312 37 411 87 80 41 221 151 350 273 66
62 155 142 198 177 155 130 206 211 277 443 139 453 160 540 160 668 0 117
-20 229 -56 310 -13 30 -31 85 -39 121 -15 66 -39 155 -97 366 -91 330 -208
519 -397 642 -2 1 15 23 37 50 71 85 147 208 232 375 45 90 114 220 152 290
38 70 103 200 144 290 89 193 133 270 274 483 59 88 149 232 202 320 52 88
124 203 159 255 36 52 96 150 133 218 l68 122 57 0 c206 1 445 120 540 269 39
60 81 220 81 305 0 160 -77 373 -165 462 -51 51 -138 97 -216 114 -125 28
-314 -8 -436 -83 -69 -43 -203 -158 -203 -175 0 -25 -54 -111 -72 -115 -25 -7
-45 -54 -32 -75 7 -12 7 -40 0 -90 -16 -114 3 -184 89 -327 l18 -31 -91 -152
c-50 -83 -113 -198 -140 -254 -27 -57 -137 -247 -244 -423 -277 -455 -424
-721 -585 -1060 -29 -60 -72 -139 -95 -175 l-41 -65 -18 95 c-20 111 -79 337
-120 465 -37 113 -108 246 -352 655 -120 201 -226 348 -408 565 -145 174 -215
241 -349 335 -123 87 -282 213 -395 314 -125 112 -153 132 -461 337 -428 285
-516 327 -1209 571 -77 27 -198 72 -268 99 -100 39 -173 59 -325 89 -109 21
-305 63 -437 94 -132 30 -292 64 -355 75 -100 18 -556 80 -592 81 -7 1 68 80
167 177 l180 176 95 3 c231 7 450 111 545 259 161 250 107 630 -119 844 -100
94 -221 125 -371 96z m321 -177 l29 -33 -32 29 c-31 28 -38 36 -30 36 2 0 16
-15 33 -32z m-605 -124 c117 -34 397 -199 478 -283 59 -61 145 -185 176 -255
l24 -55 -26 -31 -25 -31 -33 82 c-79 196 -254 373 -468 475 -68 32 -212 68
-229 58 -16 -10 -7 10 14 33 26 27 21 27 89 7z m634 -224 c10 -11 16 -20 13
-20 -3 0 -13 9 -23 20 -10 11 -16 20 -13 20 3 0 13 -9 23 -20z m-384 -117 c13
-16 12 -17 -3 -4 -10 7 -18 15 -18 17 0 8 8 3 21 -13z m65 -55 l29 -33 -32 29
c-31 28 -38 36 -30 36 2 0 16 -15 33 -32z m55 -65 c13 -16 12 -17 -3 -4 -17
13 -22 21 -14 21 2 0 10 -8 17 -17z m-226 -153 c10 -11 16 -20 13 -20 -3 0
-13 9 -23 20 -10 11 -16 20 -13 20 3 0 13 -9 23 -20z m-134 -59 c30 -21 61
-50 68 -64 31 -59 -16 -134 -164 -264 -79 -70 -131 -123 -191 -197 l-32 -38
-147 13 -148 12 70 66 c39 36 130 123 204 192 84 79 160 162 204 222 39 53 73
96 76 96 3 1 30 -17 60 -38z m489 -45 c0 -2 -7 -7 -16 -10 -8 -3 -12 -2 -9 4
6 10 25 14 25 6z m-1790 -531 c69 -7 199 -23 290 -34 91 -11 235 -25 320 -31
227 -16 338 -28 500 -55 80 -13 213 -33 295 -45 201 -28 388 -63 559 -105 77
-18 218 -50 311 -69 94 -20 220 -47 281 -61 61 -14 117 -23 125 -20 8 3 55
-14 105 -39 132 -65 306 -136 519 -211 303 -107 541 -228 795 -405 69 -48 166
-113 217 -144 96 -61 265 -192 393 -306 70 -62 118 -99 370 -287 110 -82 157
-130 304 -305 193 -232 301 -389 456 -663 40 -71 99 -173 131 -226 33 -53 74
-129 93 -170 68 -148 186 -614 186 -736 0 -36 -24 -75 -110 -180 -22 -26 -40
-58 -40 -71 0 -13 -3 -21 -8 -18 -4 2 -91 6 -193 7 l-186 3 5 42 c2 23 0 49
-5 58 -6 12 -1 39 16 89 23 67 25 85 25 267 1 165 -4 221 -27 365 -43 268 -66
345 -168 546 -104 208 -190 313 -538 655 -333 328 -356 348 -561 504 -85 64
-195 153 -244 196 -221 197 -259 224 -486 347 -96 52 -226 124 -288 160 -62
36 -159 85 -215 110 -211 92 -618 212 -941 277 -77 16 -267 60 -421 100 -399
101 -756 173 -1145 230 -107 16 -244 40 -305 54 -95 22 -140 26 -330 29 -121
2 -251 10 -290 16 -101 18 -247 10 -830 -45 -88 -8 -251 -31 -363 -49 -359
-61 -527 -106 -679 -180 -46 -23 -83 -38 -83 -35 1 9 173 127 240 163 168 92
381 162 598 197 343 56 407 64 617 80 83 6 166 12 185 14 65 8 394 -5 520 -19z
m-1095 -905 c-3 -5 -12 -10 -18 -10 -7 0 -6 4 3 10 19 12 23 12 15 0z m8960
-20 c-3 -5 -12 -10 -18 -10 -7 0 -6 4 3 10 19 12 23 12 15 0z m-9415 -73 c0
-2 -10 -12 -22 -23 l-23 -19 19 23 c18 21 26 27 26 19z m660 -41 c0 -2 -8 -10
-17 -17 -16 -13 -17 -12 -4 4 13 16 21 21 21 13z m-1190 -9 c0 -2 -10 -12 -22
-23 l-23 -19 19 23 c18 21 26 27 26 19z m181 -14 c13 -16 12 -17 -3 -4 -17 13
-22 21 -14 21 2 0 10 -8 17 -17z m289 14 c0 -1 -28 -29 -62 -62 l-63 -60 60
63 c55 58 65 67 65 59z m9539 -34 c182 -38 363 -180 452 -355 40 -79 36 -104
-5 -35 -76 126 -142 186 -281 255 -139 69 -235 98 -388 117 -58 8 -59 27 -1
36 53 7 134 1 223 -18z m-8929 0 c-8 -3 -22 -11 -30 -17 -13 -10 -13 -9 -1 7
7 9 21 17 30 16 13 0 14 -1 1 -6z m-1940 -46 c0 -2 -10 -12 -22 -23 l-23 -19
19 23 c18 21 26 27 26 19z m1840 -21 c0 -2 -8 -10 -17 -17 -16 -13 -17 -12 -4
4 13 16 21 21 21 13z m9486 -28 l29 -33 -32 29 c-18 17 -33 31 -33 33 0 8 8 1
36 -29z m-9856 9 c0 -1 -39 -41 -87 -87 l-88 -85 85 88 c79 81 90 92 90 84z
m-280 -30 c0 -2 -12 -14 -27 -28 l-28 -24 24 28 c23 25 31 32 31 24z m590 0
c0 -2 -15 -16 -32 -33 l-33 -29 29 33 c28 30 36 37 36 29z m9620 -78 c0 -6 -4
-7 -10 -4 -5 3 -10 11 -10 17 0 6 -6 19 -12 28 -7 9 -3 5 10 -8 12 -13 22 -28
22 -33z m-10550 26 c13 -14 21 -25 18 -25 -2 0 -15 11 -28 25 -13 14 -21 25
-18 25 2 0 15 -11 28 -25z m200 12 c0 -2 -10 -12 -22 -23 l-23 -19 19 23 c18
21 26 27 26 19z m70 -41 c0 -2 -8 -10 -17 -17 -16 -13 -17 -12 -4 4 13 16 21
21 21 13z m570 1 c0 -2 -12 -14 -27 -28 l-28 -24 24 28 c23 25 31 32 31 24z
m210 -60 c0 -2 -10 -12 -22 -23 l-23 -19 19 23 c18 21 26 27 26 19z m-1094
-29 l19 -23 -25 20 c-14 11 -27 21 -29 22 -2 2 0 3 6 3 5 0 18 -10 29 -22z
m734 -53 c-41 -41 -77 -75 -79 -75 -3 0 28 34 69 75 41 41 77 75 79 75 3 0
-28 -34 -69 -75z m-902 45 c-7 -10 -14 -17 -17 -15 -4 4 18 35 25 35 2 0 -1
-9 -8 -20z m652 17 c0 -2 -12 -14 -27 -28 l-28 -24 24 28 c23 25 31 32 31 24z
m-1455 -69 c181 -103 378 -186 1005 -423 223 -84 475 -180 560 -213 308 -118
859 -293 1250 -399 385 -103 773 -224 964 -299 389 -154 495 -185 951 -279
215 -44 385 -84 417 -98 30 -13 141 -52 247 -86 132 -43 199 -69 212 -84 101
-116 136 -147 283 -247 130 -87 198 -144 351 -288 240 -226 251 -239 247 -312
-3 -51 1 -64 58 -173 33 -64 72 -147 86 -184 14 -38 38 -100 54 -140 17 -39
43 -139 60 -223 26 -130 30 -173 30 -313 0 -89 -5 -178 -10 -197 -14 -48 -40
-194 -46 -255 -9 -97 -66 -390 -91 -470 -31 -97 -49 -135 -120 -244 -76 -118
-161 -220 -194 -234 -16 -7 -68 -48 -116 -93 -48 -44 -124 -104 -168 -134 -44
-29 -120 -83 -170 -120 -158 -117 -291 -185 -529 -274 -205 -77 -363 -98 -641
-86 -166 8 -228 19 -790 140 -104 23 -242 52 -305 65 -513 106 -757 181 -1390
428 -421 164 -660 265 -915 387 -216 104 -498 227 -720 315 -230 91 -465 195
-634 279 -126 64 -269 123 -319 132 -38 7 -34 2 -174 219 -50 77 -101 164
-114 193 -24 52 -31 92 -16 92 4 0 70 -50 147 -111 295 -235 479 -338 817
-458 222 -79 423 -158 507 -200 31 -16 88 -41 126 -56 39 -15 146 -66 240
-113 285 -142 447 -208 995 -407 348 -126 407 -145 732 -234 141 -39 381 -109
533 -156 390 -120 507 -148 740 -179 253 -33 362 -41 585 -41 262 0 376 16
548 76 123 43 407 182 461 226 103 84 321 275 321 282 0 4 44 52 98 107 152
155 163 176 232 449 92 364 108 509 86 792 -22 275 -75 505 -151 659 -58 116
-156 248 -297 400 -40 44 -91 106 -112 139 -72 111 -148 196 -199 221 -96 49
-216 92 -452 162 -132 39 -332 98 -445 131 -223 66 -378 120 -655 231 -307
123 -461 176 -710 244 -384 105 -577 168 -935 309 -229 89 -315 118 -584 192
-219 61 -398 123 -709 246 -366 146 -571 220 -753 272 -419 120 -620 225 -639
334 -3 23 -2 58 4 79 11 42 39 87 50 82 3 -2 51 -29 106 -60z m11280 2 c10
-11 16 -20 13 -20 -3 0 -13 9 -23 20 -10 11 -16 20 -13 20 3 0 13 -9 23 -20z
m-9895 -13 c0 -2 -10 -12 -22 -23 l-23 -19 19 23 c18 21 26 27 26 19z m590 0
c0 -1 -28 -29 -62 -62 l-63 -60 60 63 c55 58 65 67 65 59z m-640 -61 c0 -2 -8
-10 -17 -17 -16 -13 -17 -12 -4 4 13 16 21 21 21 13z m-524 -27 c19 -22 19
-22 -3 -10 -13 6 -23 16 -23 21 0 15 5 12 26 -11z m154 -13 c0 -2 -7 -7 -16
-10 -8 -3 -12 -2 -9 4 6 10 25 14 25 6z m620 -10 c0 -2 -8 -10 -17 -17 -16
-13 -17 -12 -4 4 13 16 21 21 21 13z m-693 -12 c-3 -3 -12 -4 -19 -1 -8 3 -5
6 6 6 11 1 17 -2 13 -5z m5983 -39 c19 -19 32 -35 29 -35 -3 0 -20 16 -39 35
-19 19 -32 35 -29 35 3 0 20 -16 39 -35z m-5080 -8 c0 -2 -12 -14 -27 -28
l-28 -24 24 28 c23 25 31 32 31 24z m9620 -31 c0 -2 -8 -10 -17 -17 -16 -13
-17 -12 -4 4 13 16 21 21 21 13z m-4425 -66 c10 -11 16 -20 13 -20 -3 0 -13 9
-23 20 -10 11 -16 20 -13 20 3 0 13 -9 23 -20z m56 -47 c13 -16 12 -17 -3 -4
-17 13 -22 21 -14 21 2 0 10 -8 17 -17z m3828 -113 c6 0 11 -4 11 -10 0 -18
-124 -232 -201 -346 -40 -61 -112 -178 -159 -259 -47 -82 -129 -216 -184 -298
-125 -191 -191 -308 -266 -477 -34 -74 -115 -238 -182 -365 -66 -126 -142
-270 -168 -320 -38 -72 -180 -308 -195 -323 -2 -2 -39 9 -82 26 -43 16 -95 33
-116 36 l-37 7 51 53 c64 66 209 268 288 401 33 55 89 163 124 240 121 262
226 451 527 945 123 201 247 415 276 475 47 98 73 140 172 287 l24 36 53 -54
c29 -30 58 -54 64 -54z m-10489 -68 c337 -117 357 -125 610 -232 467 -198 747
-297 1069 -380 109 -28 246 -76 481 -168 293 -115 452 -166 860 -276 273 -74
519 -159 850 -296 172 -71 429 -156 725 -240 138 -39 327 -96 421 -126 l171
-55 234 -232 c399 -394 474 -511 544 -850 37 -176 52 -423 37 -601 -16 -189
-95 -543 -154 -689 -27 -68 -42 -89 -105 -150 -41 -40 -90 -93 -109 -119 -33
-45 -187 -185 -302 -276 -70 -55 -350 -194 -466 -231 -169 -54 -249 -65 -491
-65 -209 -1 -312 7 -575 40 -233 30 -400 71 -825 204 -104 33 -320 95 -480
139 -300 82 -443 129 -775 251 -548 201 -634 237 -1045 442 -154 77 -332 162
-395 190 -63 27 -133 60 -155 72 -22 13 -121 66 -220 118 -268 141 -437 249
-522 335 -40 39 -73 78 -73 86 0 8 -9 35 -20 59 -28 65 -67 215 -91 353 -11
66 -29 156 -40 200 -12 44 -23 98 -25 120 -2 22 -8 63 -14 90 -5 28 -13 156
-16 285 -8 277 4 438 47 650 17 80 37 183 45 230 9 47 27 144 40 217 29 154
58 248 119 382 25 53 61 151 81 216 52 172 91 244 199 363 31 35 54 52 64 48
9 -3 144 -50 301 -104z m7115 -122 c10 -11 16 -20 13 -20 -3 0 -13 9 -23 20
-10 11 -16 20 -13 20 3 0 13 -9 23 -20z m70 -60 c21 -22 37 -40 34 -40 -3 0
-23 18 -44 40 -21 22 -37 40 -34 40 3 0 23 -18 44 -40z m115 -105 c19 -19 32
-35 29 -35 -3 0 -20 16 -39 35 -19 19 -32 35 -29 35 3 0 20 -16 39 -35z m160
-172 c0 -8 -9 0 -50 45 l-45 47 48 -45 c26 -24 47 -45 47 -47z m-3670 44 c0
-2 -15 -16 -32 -33 l-33 -29 29 33 c28 30 36 37 36 29z m3716 -99 l29 -33 -32
29 c-18 17 -33 31 -33 33 0 8 8 1 36 -29z m-1191 2 c10 -11 16 -20 13 -20 -3
0 -13 9 -23 20 -10 11 -16 20 -13 20 3 0 13 -9 23 -20z m-2166 -87 c-25 -27
-67 -85 -94 -130 -28 -45 -53 -83 -57 -83 -13 0 103 174 145 218 23 23 43 42
45 42 3 0 -15 -21 -39 -47z m3412 20 c13 -16 12 -17 -3 -4 -10 7 -18 15 -18
17 0 8 8 3 21 -13z m-2116 -643 c10 -11 16 -20 13 -20 -3 0 -13 9 -23 20 -10
11 -16 20 -13 20 3 0 13 -9 23 -20z m2514 -94 c8 -13 11 -30 8 -38 -3 -8 -6
-6 -6 6 -1 11 -8 28 -18 38 -9 10 -12 18 -6 18 5 0 15 -11 22 -24z m-831 -111
c-3 -3 -9 2 -12 12 -6 14 -5 15 5 6 7 -7 10 -15 7 -18z m-1397 -42 c13 -16 12
-17 -3 -4 -17 13 -22 21 -14 21 2 0 10 -8 17 -17z m119 -108 c47 -47 82 -85
80 -85 -3 0 -43 38 -90 85 -47 47 -82 85 -80 85 3 0 43 -38 90 -85z m1190 60
c13 -14 21 -25 18 -25 -2 0 -15 11 -28 25 -13 14 -21 25 -18 25 2 0 15 -11 28
-25z m-1075 -185 c10 -11 16 -20 13 -20 -3 0 -13 9 -23 20 -10 11 -16 20 -13
20 3 0 13 -9 23 -20z m50 -60 c10 -11 16 -20 13 -20 -3 0 -13 9 -23 20 -10 11
-16 20 -13 20 3 0 13 -9 23 -20z m76 -97 c13 -16 12 -17 -3 -4 -10 7 -18 15
-18 17 0 8 8 3 21 -13z m2079 -247 c0 -2 -7 -7 -16 -10 -8 -3 -12 -2 -9 4 6
10 25 14 25 6z m732 -326 c153 -18 296 -94 373 -198 48 -63 118 -207 155 -316
16 -50 30 -90 30 -91 0 -1 -25 7 -56 17 -87 29 -265 51 -379 46 -220 -11 -434
-134 -532 -308 -56 -99 -166 -459 -178 -580 -2 -25 -12 -85 -21 -135 -61 -347
-59 -427 17 -580 43 -86 109 -162 175 -201 57 -34 171 -71 289 -94 55 -11 142
-34 193 -52 l92 -31 -27 -30 c-57 -60 -240 -199 -298 -227 -64 -30 -163 -54
-260 -64 -67 -7 -229 20 -281 47 -17 9 -84 32 -148 51 -115 34 -119 36 -174
94 -32 33 -83 77 -115 98 -69 45 -88 78 -140 239 -41 127 -63 237 -72 350 -8
94 11 384 30 470 7 33 16 92 20 130 10 96 70 331 110 429 18 45 56 134 84 200
29 65 63 156 76 202 29 98 44 130 99 203 46 61 243 226 296 249 19 8 84 25
144 39 61 13 120 30 131 36 46 25 185 28 367 7z m-1292 -64 c0 -2 -8 -10 -17
-17 -16 -13 -17 -12 -4 4 13 16 21 21 21 13z m1360 -680 c0 -2 -7 -7 -16 -10
-8 -3 -12 -2 -9 4 6 10 25 14 25 6z m-110 -79 c0 -2 -15 -16 -32 -33 l-33 -29
29 33 c28 30 36 37 36 29z m-10588 -34 c27 -30 68 -88 68 -96 0 -3 -13 -2 -29
3 -103 29 -250 17 -340 -29 -23 -12 -41 -18 -41 -15 0 19 53 95 79 113 37 27
122 50 187 50 43 1 54 -3 76 -26z m10629 -80 c13 -16 12 -17 -3 -4 -10 7 -18
15 -18 17 0 8 8 3 21 -13z m-7 -172 c86 -62 105 -72 135 -69 28 2 39 9 49 30
16 35 43 42 141 36 145 -8 271 -91 333 -216 28 -56 32 -76 31 -136 -2 -155
-62 -331 -151 -442 -60 -76 -126 -106 -251 -113 -60 -4 -104 -11 -114 -20 -18
-15 -22 -51 -8 -66 20 -21 -20 -247 -48 -278 -4 -4 -46 6 -92 23 -102 37 -197
105 -274 198 -79 94 -102 137 -126 233 -33 127 -24 227 37 444 12 44 34 132
49 195 29 121 65 223 97 277 l19 33 37 -29 c20 -16 82 -61 136 -100z m-10616
84 c116 -23 118 -25 141 -101 26 -82 26 -108 1 -208 -40 -157 -100 -218 -214
-218 -81 0 -166 55 -206 132 -30 59 -90 220 -96 261 -8 48 2 62 70 97 101 51
181 61 304 37z m11291 -89 c-3 -3 -11 5 -18 17 -13 21 -12 21 5 5 10 -10 16
-20 13 -22z m-9849 -463 c0 -7 -39 17 -46 28 -3 6 5 3 20 -6 14 -10 26 -19 26
-22z m40 -48 c13 -14 21 -25 18 -25 -2 0 -15 11 -28 25 -13 14 -21 25 -18 25
2 0 15 -11 28 -25z m110 -100 c13 -14 21 -25 18 -25 -2 0 -15 11 -28 25 -13
14 -21 25 -18 25 2 0 15 -11 28 -25z m51 -42 c13 -16 12 -17 -3 -4 -10 7 -18
15 -18 17 0 8 8 3 21 -13z m7186 -165 c-3 -8 -6 -5 -6 6 -1 11 2 17 5 13 3 -3
4 -12 1 -19z m2338 -157 c-3 -6 -11 -11 -17 -11 -6 0 -6 6 2 15 14 17 26 13
15 -4z m-3115 -15 c0 -2 -8 -10 -17 -17 -16 -13 -17 -12 -4 4 13 16 21 21 21
13z m-40 -50 c0 -2 -8 -10 -17 -17 -16 -13 -17 -12 -4 4 13 16 21 21 21 13z
m-5729 -23 c13 -16 12 -17 -3 -4 -10 7 -18 15 -18 17 0 8 8 3 21 -13z m5699
-16 c0 -1 -28 -29 -62 -62 l-63 -60 60 63 c55 58 65 67 65 59z m-5645 -27 c10
-11 16 -20 13 -20 -3 0 -13 9 -23 20 -10 11 -16 20 -13 20 3 0 13 -9 23 -20z
m8582 -42 c-2 -13 -4 -5 -4 17 -1 22 1 32 4 23 2 -10 2 -28 0 -40z m123 -23
c-24 -25 -46 -45 -49 -45 -3 0 15 20 39 45 24 25 46 45 49 45 3 0 -15 -20 -39
-45z m-8645 15 c10 -11 16 -20 13 -20 -3 0 -13 9 -23 20 -10 11 -16 20 -13 20
3 0 13 -9 23 -20z m5433 -69 c-13 -15 -25 -27 -27 -25 -4 4 39 54 47 54 2 0
-7 -13 -20 -29z m3152 6 c0 -2 -12 -14 -27 -28 l-28 -24 24 28 c23 25 31 32
31 24z m-70 -62 c-7 -8 -18 -15 -24 -15 -6 0 -2 7 8 15 25 19 32 19 16 0z
m-3110 -202 c0 -8 -9 0 -50 45 l-45 47 48 -45 c26 -24 47 -45 47 -47z m175 67
c10 -11 16 -20 13 -20 -3 0 -13 9 -23 20 -10 11 -16 20 -13 20 3 0 13 -9 23
-20z m-575 -104 c0 -2 -8 -10 -17 -17 -16 -13 -17 -12 -4 4 13 16 21 21 21 13z
m-50 -40 c0 -2 -8 -10 -17 -17 -16 -13 -17 -12 -4 4 13 16 21 21 21 13z m1795
-46 c21 -22 37 -40 34 -40 -3 0 -23 18 -44 40 -21 22 -37 40 -34 40 3 0 23
-18 44 -40z m-1845 6 c0 -2 -8 -10 -17 -17 -16 -13 -17 -12 -4 4 13 16 21 21
21 13z m580 -29 c0 -2 -12 -14 -27 -28 l-28 -24 24 28 c23 25 31 32 31 24z
m-835 -199 l40 -43 -45 40 c-25 22 -47 41 -49 43 -2 1 0 2 5 2 6 0 28 -19 49
-42z m915 -13 c19 -19 32 -35 29 -35 -3 0 -20 16 -39 35 -19 19 -32 35 -29 35
3 0 20 -16 39 -35z m-839 -52 c13 -16 12 -17 -3 -4 -10 7 -18 15 -18 17 0 8 8
3 21 -13z m699 -17 c0 -2 -7 -7 -16 -10 -8 -3 -12 -2 -9 4 6 10 25 14 25 6z
m-850 -31 c13 -14 21 -25 18 -25 -2 0 -15 11 -28 25 -13 14 -21 25 -18 25 2 0
15 -11 28 -25z m1091 8 c13 -16 12 -17 -3 -4 -10 7 -18 15 -18 17 0 8 8 3 21
-13z m-820 -50 c13 -16 12 -17 -3 -4 -10 7 -18 15 -18 17 0 8 8 3 21 -13z
m644 -3 c10 -11 16 -20 13 -20 -3 0 -13 9 -23 20 -10 11 -16 20 -13 20 3 0 13
-9 23 -20z m-854 -7 c13 -16 12 -17 -3 -4 -10 7 -18 15 -18 17 0 8 8 3 21 -13z
m180 -130 c13 -16 12 -17 -3 -4 -10 7 -18 15 -18 17 0 8 8 3 21 -13z m1184
-41 c-3 -3 -11 0 -18 7 -9 10 -8 11 6 5 10 -3 15 -9 12 -12z m-152 -49 c-7 -2
-19 -2 -25 0 -7 3 -2 5 12 5 14 0 19 -2 13 -5z"/>
<path d="M5463 8995 c-88 -59 -142 -153 -164 -280 -10 -60 -10 -78 4 -126 30
-102 123 -180 196 -164 61 13 131 123 158 249 35 166 -27 356 -116 356 -14 0
-50 -16 -78 -35z"/>
<path d="M8985 7812 c-42 -26 -102 -95 -121 -139 -25 -60 -54 -184 -54 -234 0
-142 86 -259 190 -259 77 0 144 54 179 145 61 161 47 382 -31 471 -27 30 -35
34 -82 34 -32 0 -62 -7 -81 -18z"/>
<path d="M6540 7512 c-64 -10 -120 -90 -105 -149 19 -79 68 -106 380 -211 188
-64 214 -71 246 -62 78 22 117 84 98 153 -16 61 -52 82 -252 152 -104 35 -216
76 -250 89 -81 31 -88 33 -117 28z"/>
<path d="M13675 6368 c-81 -44 -70 -158 19 -188 77 -25 154 58 122 134 -24 59
-89 83 -141 54z"/>
<path d="M13670 5998 c-87 -45 -103 -140 -35 -204 62 -58 141 -52 198 15 57
68 19 176 -71 201 -47 13 -41 14 -92 -12z"/>
<path d="M14574 6466 c-64 -20 -99 -45 -128 -89 -35 -55 -34 -108 2 -178 34
-65 74 -91 141 -91 58 1 106 20 171 67 43 32 49 34 61 18 34 -41 141 -67 167
-41 29 29 -5 78 -54 78 -12 0 -32 9 -45 19 l-24 19 19 36 c25 47 38 57 94 71
53 14 73 36 56 63 -25 39 -135 22 -177 -28 l-25 -29 -23 26 c-55 58 -159 84
-235 59z m136 -94 c20 -10 39 -29 44 -44 8 -24 6 -32 -20 -59 -51 -54 -138
-88 -175 -68 -25 13 -59 86 -52 108 25 69 127 101 203 63z"/>
<path d="M4742 2868 l3 -1303 23 -70 c39 -114 88 -193 177 -281 66 -66 100
-90 176 -128 97 -48 199 -76 282 -76 l48 0 -3 58 -3 57 -71 7 c-221 22 -414
188 -481 414 -16 55 -18 150 -21 1342 l-3 1282 -65 0 -65 0 3 -1302z"/>
<path d="M12670 2605 l0 -1565 65 0 65 0 2 227 3 227 42 -65 c156 -239 462
-411 759 -426 302 -16 554 84 764 303 133 139 210 276 249 446 77 332 -9 656
-241 903 -142 152 -321 252 -533 296 -33 7 -121 13 -195 12 -163 0 -282 -28
-426 -98 -167 -81 -290 -188 -383 -335 l-41 -65 0 853 0 852 -65 0 -65 0 0
-1565z m1140 231 c256 -47 480 -217 607 -462 61 -117 84 -206 90 -355 11 -257
-63 -454 -241 -638 -127 -131 -248 -203 -409 -241 -113 -27 -282 -27 -397 0
-251 60 -477 249 -590 492 -47 102 -62 172 -67 318 -4 113 -2 149 16 222 37
155 104 278 220 401 209 221 484 315 771 263z"/>
<path d="M8160 2600 l0 -1560 64 0 65 0 4 602 c3 539 5 609 21 663 59 201 203
373 391 465 121 60 185 73 340 68 107 -4 142 -9 197 -30 183 -68 345 -225 416
-401 50 -124 52 -150 52 -779 l0 -588 71 0 71 0 -5 607 c-4 587 -5 611 -26
693 -79 306 -323 541 -630 606 -88 18 -269 18 -372 -2 -211 -39 -369 -144
-483 -319 l-46 -69 0 802 0 802 -65 0 -65 0 0 -1560z"/>
<path d="M17280 2648 c0 -1131 -1 -1096 65 -1236 107 -225 330 -375 588 -394
l57 -5 0 58 0 57 -62 7 c-81 9 -185 45 -248 85 -68 44 -172 157 -204 223 -61
123 -60 110 -63 754 l-4 593 288 2 288 3 3 58 3 57 -291 0 -290 0 0 380 0 380
-65 0 -65 0 0 -1022z"/>
<path d="M3081 2949 c-295 -49 -577 -263 -720 -546 -57 -114 -83 -222 -88
-376 -8 -202 17 -329 97 -487 46 -92 83 -143 168 -232 155 -162 323 -256 537
-299 78 -16 284 -16 360 0 204 42 376 133 512 272 68 69 80 84 130 168 l33 55
0 -232 0 -232 65 0 65 0 0 940 0 940 -65 0 -65 0 0 -232 -1 -233 -30 57 c-114
208 -353 373 -624 429 -97 20 -277 24 -374 8z m385 -129 c277 -71 519 -298
607 -570 81 -248 47 -522 -90 -735 -133 -205 -345 -351 -568 -390 -277 -48
-533 31 -744 231 -266 250 -344 636 -197 969 78 176 276 373 453 451 148 66
380 84 539 44z"/>
<path d="M6585 2944 c-253 -56 -486 -209 -610 -398 l-50 -77 -3 226 -2 225
-65 0 -65 0 0 -1355 0 -1355 65 0 65 0 2 637 3 638 56 -80 c128 -183 333 -321
568 -382 180 -47 410 -32 589 37 270 104 499 349 585 625 67 213 55 470 -32
676 -60 143 -196 311 -341 420 -72 55 -218 124 -316 150 -107 29 -348 35 -449
13z m457 -141 c262 -92 480 -321 559 -588 27 -91 37 -289 19 -389 -56 -319
-296 -589 -605 -682 -80 -24 -106 -27 -235 -27 -128 0 -155 3 -233 27 -154 46
-251 105 -375 228 -126 125 -201 259 -237 423 -14 60 -16 108 -13 214 4 119 9
148 37 230 96 283 329 505 611 581 63 17 99 20 230 17 143 -3 162 -6 242 -34z"/>
<path d="M11011 2949 c-295 -49 -577 -263 -720 -546 -57 -114 -83 -222 -88
-376 -8 -202 17 -329 97 -487 46 -92 83 -143 168 -232 155 -162 323 -256 537
-299 78 -16 284 -16 360 0 204 42 376 133 512 272 68 69 80 84 130 168 l33 55
0 -232 0 -232 65 0 65 0 0 940 0 940 -65 0 -65 0 0 -232 -1 -233 -30 57 c-114
208 -353 373 -624 429 -97 20 -277 24 -374 8z m385 -129 c277 -71 519 -298
607 -570 81 -248 47 -522 -90 -735 -133 -205 -345 -351 -568 -390 -277 -48
-533 31 -744 231 -266 250 -344 636 -197 969 78 176 276 373 453 451 148 66
380 84 539 44z"/>
<path d="M15751 2949 c-395 -70 -731 -403 -800 -793 -14 -77 -14 -265 0 -342
35 -200 133 -380 293 -539 218 -217 491 -310 805 -275 240 26 424 120 596 301
83 88 131 158 185 271 68 143 83 217 84 413 0 157 -2 177 -28 260 -102 334
-350 583 -681 681 -77 22 -113 27 -245 30 -85 1 -179 -1 -209 -7z m385 -129
c277 -71 519 -298 607 -570 81 -248 47 -522 -90 -735 -133 -205 -345 -351
-568 -390 -277 -48 -533 31 -744 231 -266 250 -344 636 -197 969 78 176 276
373 453 451 148 66 380 84 539 44z"/>
</g>
</svg>
